<svg id="レイヤー_1" xmlns="http://www.w3.org/2000/svg" viewBox="0 0 162 32" width="162" height="32"><style>.st0{fill-rule:evenodd;clip-rule:evenodd;fill:#231916;} .st1{fill-rule:evenodd;clip-rule:evenodd;fill:#0078C6;} .st2{fill-rule:evenodd;clip-rule:evenodd;fill:#FEFEFE;}</style><path class="st0" d="M51.8 13.4c0-.4.1-1.6.1-1.6h-2.3c0 .1 0 .4-.1.6 0 .2-.2 2.1-.2 2.2 0 .1-.1 1.3-.1 1.5h2.5c0-.2.1-2.7.1-2.7zm-.3 5.3c0-.2.1-2.1.1-2.1H49l-.5 4.7h2.7c.1 0 .3-2.3.3-2.6zm-5.2-4.9c0-.1.2-2 .2-2h-2.3c0 .1-.2 1.1-.2 1.3 0 .2-.2 1.2-.2 1.3 0 .1-.2 1.6-.2 1.6h2.5c0-.1.2-2.1.2-2.2zm-.5 5.1c0-.3.2-2.1.2-2.3h-2.5c0 .1-.3 1.9-.3 2.2 0 .3-.2 1.2-.2 1.4 0 .2-.1 1-.1 1.1h2.7s.2-2.1.2-2.4zm12.1-2.6c.1.2-.1.3-.1.3-.1.1-.2.1-.2.1h-3v.6c0 .3-.1 1.2-.1 1.4s-.2 2.1-.1 2.2c0 .1.1 0 .1 0s.9-1.1 1-1.3c.1-.1.2 0 .3 0l1 1 .8.8c.1.1.1.3 0 .4s-.4.2-.4.2h-2.8c-.1 0-.1 0-.1.1s0 .3-.2 1.1c-.1.8-.4 1.3-.8 1.7-.4.4-.9.6-1.6.7-.7.2-2.3.2-2.5.2-.1 0-.2-.1-.3-.2-.3-1.1-.9-1.7-.9-1.7-.5-.5-1-.7-1-.7v-.1c0-.1 0-.1.2-.1h3.1c.6 0 .6-.2.7-.4.1-.2.1-.6.1-.7h-8.5c0 .2-.1 1-.2 1.3-.1.3-.6.3-.8.4h-1.3c-.2 0-.6 0-.9-.1-.3-.1-.2-.6-.2-.7.1-.4 1-6.1 1-6.1 0-.1 0-.1-.1-.1h-2.5c-.2 0-.2 0-.2-.1s-.1-.4-.1-.5v-.1h.4c.3 0 2.5.1 2.5.1s.2-1.5.3-1.8c0-.3.3-2.6.4-2.7 0-.1 0-.1-.1 0s-.4.4-1.2 1.1c-.7.7-1.7 1.3-1.9 1.5-.1.1-.3.1-.3.1-.1-.1 0-.2.1-.3.2-.3.5-.8.5-.9.1-.2.5-1 .8-1.5.5-1.1 1.3-3.2 1.4-3.3 0-.1.5-1.4.5-1.5 0-.1.4-1.2.4-1.3 0-.1.2-.1.2 0 .1 0 .3.1.3.1.1 0 .7.2 1 .3.4.1 1.6.6 1.8.7.2.1.4.2.4.4s-.3.2-.3.2c-.2 0-.4.1-.5.2-.1.1-.5.9-.6 1-.1.1 0 .2.1.2H53.3l.1-.2c.1-.1 1.1-1.4 1.3-1.6.1-.1.3 0 .3 0 .1.1.8.7 1.1.9.3.2 1 .9 1 .9.2.2.1.3.1.4 0 .1-.2.1-.4.1H43.1c-.1 0-.1 0-.2.1s-.8 1-.9 1.2c-.1.1-.1.1 0 .2.1 0 1 .4 1.2.5.2.1.9.4 1 .4h7.4c.1 0 .1-.1.1-.1l.5-.5.6-.6c.1-.1.3 0 .4 0 .1.1 1.1.8 1.2.9.1.1.6.4.9.6.3.2.2.4.1.4-.1.1-.4.2-.5.3-.1.1-.2.1-.2.2v.8c0 .2-.1 2.4-.1 2.4s1-1.2 1-1.3c.1-.1.2 0 .2 0 .1 0 .5.5.5.5l1.1 1.1c.3-.1.4 0 .5.2zm7.4 6.5v-7.1H73c0 .1.1 7.1.1 7.1h-7.8zm.1-7.7H73V8.5h-7.7v6.6zm11.8-6.7c-.2-.1-.9-.7-1.1-.8-.1-.1-1.2-.8-1.3-.9-.1-.1-.2-.1-.2-.2-.1 0-.2-.1-.3 0-.1.1-.8.9-.9 1-.2.1-.4.3-.4.4h-.2-6.2c-.6 0-1 0-1.3-.1-.3-.1-1.1-.4-1.5-.6-.3-.1-1.2-.4-1.4-.4-.1 0-.4-.1-.4 0V14.5c0 .3-.1 6.4-.1 7 0 .5-.1 3.1 0 3.2 0 .2.1.5.6.5s1.6-.1 2-.1c.4-.1.7-.1.7-.6s.1-1 .1-1.1h7.8v1.2s0 .2.1.3c0 .1.1.3.4.3h.7c.1 0 1.4-.1 1.6-.1.1 0 .3-.1.4-.1.1-.1.2-.2.2-.4v-1-2.7V17v-4.1-3.2c0-.2 0-.3.1-.5.1-.1.6-.5.7-.5-.1 0 0-.2-.1-.3zm7 5.3s.4-.2.6-.4c.2-.2.4-.7.2-1.3 0 0-.3-1.2-2-2.2 0 0-.3-.2-.4-.2h4.1s.1 0 .1.1-.4 2.8-.9 4.1h-1.7zm5.2 8.4c.4-.1.9-.7.9-1.4s-.4-1.2-1.1-1.7c-.7-.6-2-1-2.1-1.1-.1 0-.1-.1-.1-.1v-.4h3.3c.1 0 .3 0 .3-.1.1-.1.1-.1-.1-.4-.2-.2-1.5-1.4-1.6-1.5-.1-.1-.2 0-.2 0s-1.1 1.3-1.1 1.4l-.1.1h-.4c-.1 0 0-.1 0-.1v-2.6h3.4c.2 0 .3-.1.3-.2s-.1-.2-.1-.2-1.4-1.3-1.5-1.5c-.1-.1-.3 0-.3.1 0 0-.8 1-1 1.2l-.2.2h-1.1c.1-.1 1.2-1.2 1.3-1.4.2-.2 1-1.1 1.1-1.2.1-.1.6-.7.6-.7v-.1l-.1-.1s-1.6-.6-1.7-.6c-.1 0 0 0 0 0s2.6.1 2.7.1c.2 0 .2-.1.3-.2.1-.1 0-.2 0-.2l-.3-.3-.7-.7c-.3-.4-.7-.7-.8-.8-.1-.1-.2 0-.2 0l-.2.2c-.1.1-.9 1.1-1 1.2l-.1.1H87V9s.1-1.2.1-1.6c0-.4.1-.4.1-.5.1-.1.2-.1.3-.2.1-.1.1-.2 0-.3-.1-.1-.4-.1-.4-.1-.8-.2-3-.3-3.2-.4-.1 0-.1.1-.1.1s.1.7.1.9c0 .1 0 1 .1 1.1v1h-3.1c-.2 0-.1 0-.1.1s.1.4.1.5H82.1c.1.2.2.6.3.9s.3 1.2.3 1.4c0 .1.1.8.2 1.2.1.4.4.6.4.6v.1c-.2 0-2.6-.1-2.6-.1 0 .1.1.5.1.5H84v2.7h-3.2s-.1 0-.1.1c0 0 .1.3.1.4 0 0 0 .1.2.1h2.1s.1 0 0 .1c-.1.4-.8 2-1.1 2.7-.2.4-.8 1.7-1.8 3.2-.1.1-.1.2 0 .2s.2-.1.3-.1c.1-.1.3-.2.7-.5.4-.3.9-.7 1.2-.9l1.4-1.4c.1-.1.1 0 .1 0s.1 2.3.1 2.4c0 .2-.1 1.6 0 2 0 .4.4.4.7.4h1.1c.1 0 .6 0 .9-.1.3-.1.4-.5.4-.5v-6.2-.1.1c.2.2.3.7.3.7.1.4.3.8.5 1.7.1.6.4.8.4.8.4.1.7.2 1.1.1z"/><path class="st0" d="M100.5 13.4l-.6-.6c-.1-.1-.6-.5-.6-.6-.1-.1-.5-.5-.6-.5-.1-.1-.2-.2-.3-.2s-.2-.1-.3 0c-.1.1-.6.7-.7.8-.1.1-.4.5-.5.6 0 .1-.5.6-.5.6h-2.5V9.2h.1c.1 0 1.5-.1 1.7-.1 0 0 2.2-.2 2.7-.3.5-.1 1.7-.2 1.8-.3.1-.1.1-.1 0-.2l-1-1c-.3-.2-.6-.5-.7-.6-.1-.1-.7-.5-.7-.5-.1-.1-.3 0-.3 0-.5.4-2.6 1.8-3.5 2.3 0 0-.1 0-.3-.1l-1.8-.6c-.3-.1-.7-.2-.8-.2-.1 0-.2 0-.2.1s.1 2.7.2 4.7v4.3c0 .3-.1 3-.6 4.9-.4 1.6-.7 2.1-.8 2.4-.1.2-.5.9-.6 1.1-.1.2-.2.3-.2.3s-.1.1 0 .1l.1.1s.1 0 .2-.1c.2-.1 1.3-.9 1.8-1.4 0 0 1-1 1.5-1.9.5-.9 1-1.8 1.3-3.5.3-1.7.3-3.3.3-3.4v-1.4h1.4V24.7c0 .2-.1.9.4.9s1.7-.1 1.9-.1c.2 0 .8 0 .8-.6v-3.1-7.9s0-.1.1-.1h1.7c.1 0 .3 0 .4-.2-.1-.1-.2-.2-.3-.2m18.7 8.9s0 .2-.1.2-.2.1-.4.1h-.9H117.2v-3-1.7-1.5-.8s0-.1.1-.1h1.3c.1 0 .1-.1.1-.1v-.1s0-.1-.1-.1c0 0-.3-.2-.3-.3-.1 0-.4-.4-.5-.4-.1-.1-.4-.3-.6-.4-.1-.1-.3-.2-.3-.2s-.1 0 0-.1c0 0 .1-.2.1-.3v-.4h2.3v9.1c-.1-.3-.1.1-.1.1zm-2.3-9.9h2.3v-1.9h-2.3v1.9zm-.1-2.5h2.3V8h-2.3v1.9zm-2.3 10.7s-.1 0 0 0c-.1 0-2.2.2-2.3.2h-.1v-1.6h2.4v1.4c0-.1 0-.1 0 0zm-2.3-1.9h2.3v-1.4h-2.3v1.4zm0-1.9h2.3v-1.4h-2.3v1.4zm10.5-8.9l-.7-.5c-.1-.1-1.5-1.1-1.5-1.1-.1-.1-.2 0-.2 0l-.5.5s-.5.6-.6.6H117c-.1 0-.2 0-.3-.1-.1 0-.3-.1-.6-.2-.2-.1-1-.4-1.1-.4 0 0-.9-.2-1-.3-.1 0-.1.1-.1.1v6.9s0 .3.3.3c.4 0 1.8-.1 1.8-.1v.1l-.8 1h-.1-7.1v.1l.1.4.1.1H109.4v5.5h-1.3c-.1 0 0 .1 0 .2 0 0 .2.4.2.5 0 .1.3.7.4.8 0 .1.4.9.5 1 0 .1.1.1.1.1h.1s.2-.1.3-.1c.1 0 .8-.3.9-.4.1-.1.7-.4.9-.4.1-.1.7-.4.9-.4.1-.1 1-.5 1.1-.5.1 0 .8-.4.8-.4v3s.1.1.1.2h1.4c.2 0 .4 0 .6-.1.3 0 .3-.1.4-.2.1-.1.1-.2.1-.2V23c0-.1 0-.1.3 0 .2.1.6.4.6.4.3.2.5.8.6.9.1.3.3.9.3 1 .1.2.1.2.2.2h.5c.3 0 .8-.2 1-.3l.8-.4c.2-.2.3-.3.5-.6s.3-.8.3-.9v-.8-3.9-3.7V9v-.2c0-.1 0-.1.1-.2s.2-.2.3-.2c.1 0 .1-.1.2-.1l.1-.1c.2 0 .2-.1 0-.3z"/><path class="st0" d="M107.5 12.4h2.3v-1.9h-2.3v1.9zm0-4.4s2-.1 2.2-.1c0 0 .1 0 .1.1v2h-2.3V8zm2.3 5.4c0 .1.1.3.2.3h.5c.1 0 .9 0 1.1-.1.2 0 .5 0 .5-.1.1 0 .3-.1.3-.5V8.9s0-.2.2-.3l.2-.1c.1 0 .2-.2.3-.2.1-.1.1-.2-.1-.4 0 0-.4-.3-.6-.5-.2-.2-.7-.5-.8-.6-.1-.1-.4-.3-.5-.4-.1-.1-.1-.1-.2-.1h-.1s-.2.2-.3.2-.3.4-.4.4l-.4.4s0 .1-.1.1h-.1-2.1-.2c-.1 0-.3-.1-.6-.2-.2-.1-.6-.2-.8-.3-.2-.1-.7-.2-.8-.2-.2 0-.4-.1-.5-.1h-.2c-.1 0 0 0 0 .1v18.7c0 .1 0 .3.2.4.2.1.2.1.3.1h.9c.3 0 1-.1 1.1-.1.1 0 .3-.1.4-.4v-2-10.3h2.3c.3-.2.3.2.3.3z"/><path class="st1" d="M15.5 31c8.2 0 14.8-6.6 14.8-14.7S23.7 1.6 15.5 1.6.6 8.2.6 16.3 7.3 31 15.5 31"/><path class="st2" d="M15.5 26.6c7.9 0 14.3-4.6 14.3-10.3C29.8 10.6 23.4 6 15.5 6S1.1 10.6 1.1 16.3c0 5.7 6.5 10.3 14.4 10.3"/><path class="st1" d="M15.5 26.8c5.8 0 10.5-4.7 10.5-10.4C26 10.6 21.3 6 15.5 6S4.9 10.6 4.9 16.3c0 5.8 4.7 10.5 10.6 10.5"/><path class="st2" d="M15.5 22.4c5.9 0 10.8-2.7 10.8-6.1 0-3.4-4.8-6.1-10.8-6.1-5.9 0-10.8 2.7-10.8 6.1 0 3.4 4.8 6.1 10.8 6.1"/><path class="st1" d="M15.5 22.7c3.6 0 6.4-2.9 6.4-6.4S19 10 15.5 10C11.9 10 9 12.8 9 16.3s2.9 6.4 6.5 6.4"/><path class="st2" d="M14.6 14.8s.9-1.7.9-1.8l.9 1.8 2 .3-1.4 1.4v.2l.3 1.9c-.1 0-1.7-.9-1.7-.9h-.2c-.1.1-1.8.9-1.8.9l.3-2c0-.1-.1-.1-.1-.1-.1-.1-1.4-1.3-1.4-1.3s-.1 0 0 0c.2 0 2.1-.3 2.2-.4z"/><path class="st1" d="M161.3 16.3c0-8.1-6.6-14.7-14.8-14.7-8.2 0-14.8 6.6-14.8 14.7S138.2 31 146.4 31s14.9-6.6 14.9-14.7z"/><path class="st2" d="M146.4 26.6c7.9 0 14.3-4.6 14.3-10.3 0-5.7-6.4-10.3-14.3-10.3s-14.3 4.6-14.3 10.3c0 5.7 6.4 10.3 14.3 10.3"/><path class="st1" d="M146.4 26.8c5.8 0 10.6-4.7 10.6-10.4 0-5.8-4.7-10.4-10.6-10.4s-10.6 4.7-10.6 10.4c.1 5.7 4.8 10.4 10.6 10.4"/><path class="st2" d="M146.4 22.4c5.9 0 10.8-2.7 10.8-6.1 0-3.4-4.8-6.1-10.8-6.1-5.9 0-10.8 2.7-10.8 6.1.1 3.4 4.9 6.1 10.8 6.1"/><path class="st1" d="M146.4 22.7c3.6 0 6.4-2.9 6.4-6.4S150 10 146.4 10s-6.4 2.9-6.4 6.4 2.9 6.3 6.4 6.3"/><path class="st2" d="M145.6 14.8s.9-1.7.9-1.8l.9 1.8 2 .3-1.4 1.4v.2l.3 1.9c-.1 0-1.7-.9-1.7-.9h-.2c-.1.1-1.8.9-1.8.9l.3-2c0-.1-.1-.1-.1-.1-.1-.1-1.4-1.3-1.4-1.3s-.1 0 0 0c.2 0 2-.3 2.2-.4z"/></svg>