<svg xmlns="http://www.w3.org/2000/svg" width="194" height="32" viewBox="0 0 194 32">
  <g fill="none" fill-rule="evenodd" transform="translate(1)">
    <path fill="#FFF" d="M60.6123922 16.1192157C60.5082353 15.9297255 60.3695686 15.8324706 60.2597647 15.7176471 60.1493333 15.603451 59.1190588 14.5499608 59.1190588 14.5499608 59.1190588 14.5499608 58.707451 14.1207843 58.6378039 14.0693333 58.5687843 14.0178824 58.4470588 13.9664314 58.3836863 14.0348235 58.3196863 14.1038431 57.3126275 15.3913725 57.3126275 15.3913725 57.3126275 15.3913725 57.2912941 15.4334118 57.260549 15.4334118 57.2304314 15.4334118 57.2379608 15.4076863 57.2379608 15.4076863 57.2379608 15.4076863 57.3126275 13.1620392 57.3214118 12.9035294 57.3301961 12.6462745 57.356549 12.1487059 57.3647059 12.070902 57.3734902 11.9943529 57.4531765 11.9014902 57.5617255 11.8481569 57.689098 11.7847843 57.9852549 11.6367059 58.0712157 11.5444706 58.1465098 11.4647843 58.2387451 11.2985098 57.9607843 11.0864314 57.683451 10.8743529 57.1501176 10.4683922 57.0578824 10.3993725 56.9656471 10.3309804 55.8945882 9.54101961 55.7847843 9.48329412 55.6743529 9.42619608 55.5526275 9.30572549 55.4083137 9.43811765 55.2633725 9.5692549 54.8235294 10.0392157 54.7425882 10.118902 54.6610196 10.1992157 54.3259608 10.5593725 54.2443922 10.6403137 54.2443922 10.6403137 54.1923137 10.7030588 54.1345882 10.7262745L46.2876863 10.7262745C46.1979608 10.7262745 45.4989804 10.4100392 45.260549 10.310902 45.0371765 10.2186667 44.0621176 9.84282353 43.974902 9.79952941 43.8883137 9.75686275 43.8619608 9.70980392 43.9491765 9.59811765 44.0884706 9.41866667 44.8351373 8.40470588 44.9041569 8.30996078 44.9738039 8.21584314 45.0265098 8.20392157 45.1300392 8.20392157L59.6398431 8.22839216C59.852549 8.23215686 60.0665098 8.19262745 60.1135686 8.07780392 60.1593725 7.96360784 60.1913725 7.8374902 60.0050196 7.65741176 60.0050196 7.65741176 59.2451765 6.96847059 58.9320784 6.7174902 58.6196078 6.4652549 57.8283922 5.81458824 57.7468235 5.75686275 57.6658824 5.69913725 57.5152941 5.57427451 57.3879216 5.72235294 57.260549 5.87043137 56.1116863 7.30227451 56.0451765 7.39388235 56.0451765 7.39388235 55.9403922 7.53129412 55.9058824 7.56015686 55.8713725 7.58901961 55.814902 7.59341176 55.7383529 7.59403922L45.555451 7.59403922C45.4506667 7.59341176 45.3935686 7.5545098 45.4864314 7.42839216 45.5792941 7.30227451 46.0649412 6.49913725 46.1515294 6.38054902 46.2563137 6.23686275 46.4414118 6.18101961 46.6785882 6.13396078 46.758902 6.11952941 47.0261961 6.06556863 47.0437647 5.88298039 47.065098 5.65396078 46.7507451 5.56172549 46.5888627 5.49333333 46.4269804 5.42494118 45.0635294 4.92611765 44.6927059 4.80062745 44.3225098 4.6745098 43.6743529 4.44298039 43.6103529 4.42854902 43.6103529 4.42854902 43.3236078 4.33380392 43.2633725 4.31309804 43.2025098 4.29113725 43.072 4.24847059 43.0374902 4.35137255 43.0023529 4.45427451 42.6641569 5.6012549 42.6164706 5.74682353 42.5687843 5.89301961 42.1113725 7.2614902 42.0705882 7.37694118 42.0304314 7.49176471 41.1632941 9.80329412 40.627451 10.9295686 40.3501176 11.513098 39.9033725 12.3545098 39.7941961 12.5477647 39.7132549 12.6927059 39.404549 13.2442353 39.2345098 13.5265882 39.1598431 13.6501961 39.0826667 13.7687843 39.1516863 13.8484706 39.2207059 13.9287843 39.3386667 13.8999216 39.4892549 13.7945098 39.7270588 13.6269804 40.7190588 12.896 41.4920784 12.192 42.2745098 11.4779608 42.6290196 11.1140392 42.7306667 11.0123922 42.7940392 10.9477647 42.8247843 10.9295686 42.8203922 11.0362353 42.8153725 11.1623529 42.4815686 13.5956078 42.4470588 13.9049412 42.4119216 14.2136471 42.1772549 15.8556863 42.1772549 15.8556863 42.1772549 15.8556863 39.7778824 15.7985882 39.4892549 15.7860392 39.1993725 15.7753725 39.1190588 15.763451 39.0839216 15.7753725 39.0487843 15.7860392 39.0487843 15.8092549 39.0607059 15.8669804 39.0713725 15.9240784 39.1479216 16.294902 39.1761569 16.3934118 39.2037647 16.4894118 39.2219608 16.5082353 39.385098 16.5082353 39.5463529 16.5082353 41.92 16.4850196 41.9777255 16.4850196 42.0360784 16.4850196 42.0818824 16.4894118 42.0668235 16.6036078 42.0668235 16.6036078 41.0974118 22.6798431 41.0283922 23.0569412 41.0014118 23.2050196 40.8909804 23.6856471 41.1921569 23.8230588 41.4933333 23.9604706 41.9896471 23.9272157 42.1515294 23.9272157 42.3134118 23.9272157 43.2859608 23.9159216 43.5061961 23.8933333 43.7258039 23.8701176 44.1938824 23.8142745 44.3093333 23.5055686 44.4247843 23.1962353 44.5308235 22.3535686 44.5653333 22.1584314L53.5529412 22.1584314C53.5529412 22.2506667 53.5096471 22.7030588 53.4167843 22.8743529 53.3239216 23.0462745 53.267451 23.2307451 52.6657255 23.2545882 52.0633725 23.276549 50.1709804 23.2602353 49.8836078 23.2564706 49.6175686 23.2520784 49.4236863 23.2395294 49.3025882 23.2345098 49.0641569 23.2269804 49.0403137 23.2859608 49.0403137 23.366902 49.0403137 23.4465882 49.0898824 23.494902 49.1940392 23.552 49.1940392 23.552 49.7499608 23.827451 50.2531765 24.3425882 50.2531765 24.3425882 50.9132549 24.934902 51.2169412 26.1546667 51.2376471 26.2381176 51.3298824 26.342902 51.4861176 26.3523137 51.6423529 26.361098 53.3327059 26.2889412 54.0881569 26.1258039 54.8442353 25.9626667 55.3418039 25.8020392 55.7584314 25.3301961 56.1750588 24.8577255 56.4272941 24.4197647 56.5835294 23.5181176 56.7397647 22.617098 56.7567059 22.4018824 56.7654902 22.3240784 56.7742745 22.246902 56.7830588 22.195451 56.8784314 22.195451L59.8136471 22.195451C59.8136471 22.195451 60.0953725 22.2343529 60.2346667 22.0969412 60.3739608 21.9595294 60.3777255 21.7487059 60.2698039 21.6244706 60.1631373 21.5027451 59.5400784 20.8608627 59.4227451 20.736 59.3223529 20.6293333 58.4244706 19.7396078 58.3196863 19.6712157 58.2155294 19.6021961 58.1546667 19.5338039 58.0417255 19.6454902 57.9294118 19.756549 57.0265098 20.9330196 56.9913725 20.9763137 56.9913725 20.9763137 56.9305098 21.0541176 56.9135686 20.9844706 56.8985098 20.9261176 57.0459608 18.9063529 57.0578824 18.643451 57.0698039 18.3799216 57.1218824 17.4236863 57.139451 17.1551373 57.1563922 16.8853333 57.1739608 16.5483922 57.1739608 16.5483922L60.3287843 16.5483922C60.3287843 16.5483922 60.4561569 16.5483922 60.537098 16.4454902 60.537098 16.4454902 60.716549 16.307451 60.6123922 16.1192157L60.6123922 16.1192157zM47.7904314 18.9358431C47.7552941 19.2564706 47.545098 21.4155294 47.5381961 21.5065098L44.6814118 21.5065098C44.6933333 21.4155294 44.7918431 20.5151373 44.8257255 20.3093333 44.8608627 20.1035294 44.9769412 19.129098 45.0227451 18.854902 45.0691765 18.5800784 45.3088627 16.6663529 45.337098 16.518902L48.0232157 16.518902C47.9981176 16.6550588 47.8249412 18.6145882 47.7904314 18.9358431L47.7904314 18.9358431zM48.3256471 13.5014902C48.3124706 13.6301176 48.1035294 15.750902 48.0872157 15.8964706L45.4293333 15.8964706C45.4425098 15.814902 45.6508235 14.2826667 45.6683922 14.1452549 45.6859608 14.0078431 45.8465882 12.9003922 45.8679216 12.7322353 45.8898824 12.5647059 46.048 11.4371765 46.0592941 11.3587451L48.5427451 11.3587451C48.5427451 11.3587451 48.3381961 13.3722353 48.3256471 13.5014902L48.3256471 13.5014902zM53.8396863 18.7375686C53.8202353 19.0017255 53.644549 21.4732549 53.638902 21.5065098L50.7513725 21.5065098 51.2401569 16.518902 53.9526275 16.518902C53.9526275 16.550902 53.8522353 18.5568627 53.8396863 18.7375686L53.8396863 18.7375686zM54.1220392 13.0804706C54.1220392 13.0804706 54.0003137 15.7132549 53.9808627 15.8964706L51.3010196 15.8964706C51.3135686 15.7295686 51.4352941 14.4483137 51.4472157 14.2996078 51.4591373 14.150902 51.673098 12.1298824 51.6906667 11.9636078 51.7076078 11.7985882 51.7483922 11.4158431 51.7483922 11.3587451L54.2086275 11.3587451C54.2086275 11.3587451 54.1389804 12.6763922 54.1220392 13.0804706L54.1220392 13.0804706zM80.7673725 7.66368627C80.5941961 7.50933333 79.8036078 6.89945098 79.6473725 6.79654902 79.4911373 6.69301961 78.4232157 5.93819608 78.3014902 5.86917647 78.1803922 5.80015686 78.1013333 5.73992157 78.041098 5.70603922 77.9802353 5.67152941 77.8497255 5.55921569 77.7198431 5.68031373 77.5887059 5.80015686 76.8338824 6.65035294 76.7303529 6.76141176 76.6255686 6.87372549 76.4436078 7.11403922 76.4003137 7.14917647 76.3563922 7.18305882 76.243451 7.18305882 76.243451 7.18305882L76.147451 7.18305882C76.147451 7.18305882 70.2431373 7.21756863 69.6351373 7.18305882 69.0271373 7.14917647 68.6017255 7.20878431 68.2892549 7.08831373 67.9767843 6.96847059 67.1636078 6.64533333 66.7294118 6.49035294 66.3673725 6.36172549 65.414902 6.06682353 65.2586667 6.01537255 65.1024314 5.96392157 64.819451 5.87796078 64.819451 6.03231373 64.819451 6.18666667 64.8288627 9.76878431 64.8288627 10.1069804 64.8288627 10.4451765 64.8288627 13.9890196 64.819451 14.2983529 64.8094118 14.6064314 64.755451 21.1281569 64.7378824 21.6953725 64.7203137 22.2619608 64.6682353 24.9418039 64.6858039 25.113098 64.7033725 25.2850196 64.7717647 25.6690196 65.3113725 25.6621176 65.7857255 25.6577255 66.9772549 25.5836863 67.4415686 25.5253333 67.8933333 25.4688627 68.1807059 25.3835294 68.2283922 24.9066667 68.2779608 24.4172549 68.2854902 23.7960784 68.2854902 23.7458824L76.518902 23.7458824 76.518902 25.0095686C76.518902 25.0095686 76.5126275 25.2047059 76.5734902 25.3534118 76.6086275 25.4393725 76.6989804 25.6244706 76.9863529 25.6589804 77.273098 25.6928627 77.6853333 25.6671373 77.7719216 25.6621176 77.8591373 25.6589804 79.2734118 25.5598431 79.4120784 25.5334902 79.552 25.5077647 79.7515294 25.4676078 79.865098 25.3835294 79.9692549 25.3063529 80.0727843 25.1476078 80.0903529 24.9712941 80.1079216 24.7949804 80.1079216 24.0006275 80.1079216 23.910902 80.1079216 23.8211765 80.0815686 21.2059608 80.0815686 20.9995294 80.0815686 20.7943529 80.0382745 17.1099608 80.0382745 16.8865882 80.0382745 16.6632157 79.9949804 12.8332549 79.9949804 12.5069804 79.9949804 12.1807059 79.9767843 9.31262745 79.9767843 9.14070588 79.9767843 8.96878431 79.9692549 8.77992157 80.0991373 8.66007843 80.2290196 8.53960784 80.7585882 8.17129412 80.8112941 8.07592157 80.8627451 7.98180392 80.9418039 7.81803922 80.7673725 7.66368627L80.7673725 7.66368627zM68.3425882 7.85254902L76.4260392 7.85254902 76.4260392 14.8084706 68.3425882 14.8084706 68.3425882 7.85254902zM68.2980392 23.0519216L68.3425882 15.5080784 76.4517647 15.5080784C76.4517647 15.5683137 76.5069804 23.0519216 76.5069804 23.0519216L68.2980392 23.0519216 68.2980392 23.0519216zM93.696 22.1276863C94.1640784 21.9990588 94.6861176 21.4224314 94.6334118 20.6814118 94.5819608 19.9416471 94.2117647 19.4578824 93.5228235 18.8423529 92.8332549 18.2280784 91.3863529 17.7562353 91.3110588 17.7273725 91.2357647 17.6991373 91.2244706 17.6589804 91.2244706 17.6589804L91.2244706 17.2712157C91.2244706 17.2260392 91.2533333 17.2260392 91.2533333 17.2260392 91.2533333 17.2260392 94.5819608 17.2323137 94.6861176 17.2323137 94.7902745 17.2323137 94.9640784 17.2429804 95.0450196 17.1068235 95.1259608 16.9700392 95.1730196 16.953098 94.9872941 16.7309804 94.8021961 16.5094902 93.4130196 15.2458039 93.2567843 15.1209412 93.0999216 14.9948235 93.0014118 15.1253333 93.0014118 15.1253333 93.0014118 15.1253333 91.8839216 16.5145098 91.8142745 16.6054902 91.7452549 16.6964706 91.7270588 16.6795294 91.7270588 16.6795294L91.2646275 16.6795294C91.206902 16.6795294 91.2181961 16.6054902 91.2181961 16.6054902L91.2181961 13.8378039 94.8367059 13.8378039C95.072 13.8378039 95.1629804 13.6991373 95.1780392 13.5780392 95.1924706 13.465098 95.0625882 13.344 95.0625882 13.344 95.0625882 13.344 93.5924706 11.9378824 93.4356078 11.8017255 93.2793725 11.6649412 93.1344314 11.8475294 93.0999216 11.8864314 93.0660392 11.9272157 92.2873725 12.8966275 92.0991373 13.1112157 91.9403922 13.2900392 91.9316078 13.292549 91.9316078 13.292549L90.7375686 13.292549C90.7959216 13.2360784 91.9535686 11.9956078 92.1330196 11.7841569 92.3124706 11.5739608 93.1808627 10.5888627 93.2448627 10.5091765 93.3088627 10.4294902 93.824 9.80956863 93.8698039 9.72988235 93.9168627 9.65019608 93.9105882 9.63890196 93.875451 9.5987451 93.8415686 9.55921569 93.7480784 9.52533333 93.7480784 9.52533333 93.7480784 9.52533333 92.0464314 8.93866667 91.9711373 8.90980392 91.8952157 8.88156863 91.9247059 8.86462745 91.9247059 8.86462745 91.9247059 8.86462745 94.6283922 8.928 94.7501176 8.928 94.9239216 8.928 94.9985882 8.82133333 95.0581961 8.73098039 95.1316078 8.61929412 95.0337255 8.51701961 95.0337255 8.51701961 94.9992157 8.46619608 94.8310588 8.28988235 94.7381961 8.19827451 94.6459608 8.10792157 94.1540392 7.60658824 93.9570196 7.42462745 93.7606275 7.24203922 93.4130196 6.88941176 93.2969412 6.79843137 93.1808627 6.70745098 93.1112157 6.80407843 93.1112157 6.80407843 93.1112157 6.80407843 92.9374118 6.96407843 92.8803137 7.04376471 92.8219608 7.12345098 91.9014902 8.23843137 91.8381176 8.30682353 91.7747451 8.37521569 91.7628235 8.36329412 91.7628235 8.36329412L91.2646275 8.36329412C91.1949804 8.36329412 91.2062745 8.27858824 91.2062745 8.22713725 91.2062745 8.17568627 91.2646275 6.92329412 91.2997647 6.50164706 91.334902 6.08062745 91.3800784 6.08627451 91.4497255 6.02415686 91.5193725 5.96141176 91.6523922 5.95011765 91.7396078 5.86478431 91.8268235 5.77945098 91.8381176 5.65396078 91.7515294 5.55733333 91.6649412 5.46007843 91.3687843 5.41552941 91.3687843 5.41552941 90.4884706 5.22101961 88.166902 5.0572549 88.0338824 5.04533333 87.9008627 5.03341176 87.9008627 5.14760784 87.9065098 5.19905882 87.9127843 5.24988235 87.9642353 5.97835294 87.9642353 6.1094902 87.9642353 6.24062745 88.0169412 7.18556863 88.0232157 7.31043137 88.0276078 7.43654902 88.0740392 8.26666667 88.0740392 8.26666667 88.0740392 8.33505882 88.0363922 8.33756863 88.0363922 8.33756863 87.4898824 8.38023529 84.8238431 8.28988235 84.8238431 8.28988235 84.6644706 8.28988235 84.6757647 8.31811765 84.6814118 8.3865098 84.6870588 8.45490196 84.7974902 8.81945098 84.8213333 8.86462745 84.8439216 8.90980392 84.8966275 8.90352941 84.8966275 8.90352941 85.0403137 8.89913725 86.0021961 8.89913725 86.0021961 8.89913725 86.1182745 9.06352941 86.2619608 9.5705098 86.3491765 9.89552941 86.4363922 10.2192941 86.6271373 11.1585882 86.6503529 11.334902 86.6610196 11.4152157 86.7369412 12.1380392 86.8122353 12.5534118 86.8881569 12.9687843 87.2037647 13.1796078 87.2809412 13.2260392 87.3229804 13.2517647 87.2859608 13.2812549 87.2859608 13.2812549 87.110902 13.292549 84.5283137 13.209098 84.5283137 13.209098 84.5339608 13.3571765 84.6374902 13.7392941 84.6644706 13.7825882 84.6851765 13.8158431 84.710902 13.817098 84.710902 13.817098 84.710902 13.817098 88.044549 13.7995294 88.108549 13.7995294L88.108549 16.6512941C87.7816471 16.6512941 84.7918431 16.601098 84.7397647 16.601098 84.6870588 16.601098 84.6531765 16.6192941 84.6588235 16.6694902 84.6644706 16.7209412 84.7341176 16.9819608 84.7799216 17.1294118 84.7799216 17.1294118 84.8018824 17.2467451 84.9675294 17.2429804L87.2037647 17.1915294C87.2037647 17.1915294 87.2696471 17.196549 87.2552157 17.260549 87.1510588 17.721098 86.4131765 19.3694118 86.0919216 20.0865882 85.8942745 20.5270588 85.2580392 21.836549 84.2020392 23.4767059 84.1141961 23.6122353 84.0972549 23.7038431 84.2127059 23.7094902 84.3281569 23.7151373 84.4442353 23.6241569 84.5609412 23.5557647 84.6757647 23.4873725 84.9135686 23.3229804 85.3477647 23.0155294 85.7819608 22.707451 86.2745098 22.2977255 86.6039216 22.0128627 86.9678431 21.7003922 87.9705098 20.6086275 88.0401569 20.5220392 88.115451 20.428549 88.1229804 20.5521569 88.1229804 20.5521569 88.1229804 20.5521569 88.0495686 23.1686275 88.0458039 23.2715294 88.0363922 23.4848627 87.9692549 24.9261176 88.0188235 25.3465098 88.0658824 25.7361569 88.4687059 25.7418039 88.729098 25.7418039 88.9894902 25.7418039 89.7480784 25.7079216 89.8867451 25.6966275 90.0260392 25.6847059 90.5179608 25.644549 90.8712157 25.548549 91.2244706 25.4519216 91.2420392 25.0409412 91.2420392 25.0409412L91.2420392 18.5298824C91.2420392 18.4897255 91.2476863 18.444549 91.2702745 18.4614902 91.2934902 18.4778039 91.3223529 18.5298824 91.3223529 18.5298824 91.4911373 18.7582745 91.6724706 19.244549 91.6724706 19.244549 91.8236863 19.6197647 91.9592157 20.038902 92.1505882 21.0227451 92.275451 21.6633725 92.6048627 21.888 92.6048627 21.888 92.9305098 22.1659608 93.3057255 22.2337255 93.696 22.1276863L93.696 22.1276863zM88.2716863 13.2774902C88.2716863 13.2774902 88.6425098 13.1168627 88.870902 12.8207059 89.0572549 12.5778824 89.2749804 12.1229804 89.0961569 11.4967843 89.0961569 11.4967843 88.7460392 10.1847843 87.0318431 9.14886275 86.9860392 9.11435294 86.6729412 8.93113725 86.6428235 8.90603922 86.6127059 8.88031373 86.6290196 8.85898039 86.6290196 8.85898039L90.912 8.85898039C90.912 8.85898039 90.9866667 8.86462745 90.9672157 8.98196078 90.9515294 9.08423529 90.553098 11.9272157 90.0737255 13.2774902L88.2716863 13.2774902 88.2716863 13.2774902z"/>
    <path fill="#FFF" d="M105.391059 12.8771765C105.391059 12.8771765 104.875294 12.3488627 104.788078 12.2679216 104.702118 12.1894902 104.204549 11.6938039 104.128627 11.6197647 104.053961 11.5457255 103.624784 11.1353725 103.550118 11.0676078 103.474196 10.9985882 103.306667 10.8454902 103.259608 10.8116078 103.214431 10.7764706 103.093333 10.6804706 102.994196 10.7764706 102.895686 10.8743529 102.374902 11.4773333 102.275765 11.5915294 102.177882 11.705098 101.824627 12.1254902 101.778196 12.1894902 101.731765 12.2516078 101.291922 12.8031373 101.291922 12.8031373L98.6666667 12.8031373 98.6666667 8.47121569C98.6666667 8.47121569 98.6578824 8.43043137 98.7218824 8.42352941 98.8015686 8.4147451 100.348235 8.30117647 100.557804 8.28360784 100.557804 8.28360784 102.844235 8.06462745 103.409569 7.99623529 103.902118 7.93662745 105.208471 7.78227451 105.34902 7.69819608 105.450039 7.63796078 105.420549 7.584 105.34902 7.50431373 105.281882 7.42462745 104.545255 6.70180392 104.256 6.45647059 103.966745 6.21176471 103.631059 5.91058824 103.526902 5.82462745 103.422745 5.73929412 102.831059 5.24988235 102.831059 5.24988235 102.682353 5.11435294 102.514824 5.26054902 102.514824 5.26054902 101.980235 5.66964706 99.7339608 7.17741176 98.8065882 7.65490196 98.8065882 7.65490196 98.7093333 7.65490196 98.4401569 7.552 98.4401569 7.552 96.8432941 7.03184314 96.5044706 6.9465098 96.2051765 6.87058824 95.7835294 6.75011765 95.6360784 6.72376471 95.532549 6.70682353 95.4271373 6.70180392 95.4271373 6.80407843 95.4271373 6.90698039 95.5664314 9.63890196 95.5890196 11.8130196 95.5934118 12.1894902 95.5783529 15.9567059 95.5664314 16.3093333 95.5551373 16.6625882 95.5055686 19.4710588 94.9584314 21.5215686 94.4972549 23.2476863 94.2287059 23.7578039 94.0988235 24.0740392 94.0153725 24.2773333 93.561098 25.0522353 93.4638431 25.2009412 93.3433725 25.3891765 93.2473725 25.5127843 93.2473725 25.5127843 93.2473725 25.5127843 93.1821176 25.5899608 93.2128627 25.6489412 93.2128627 25.6489412 93.2341961 25.7003922 93.2825098 25.7091765 93.3301961 25.7173333 93.3785098 25.7273725 93.5077647 25.6539608 93.7468235 25.516549 94.88 24.7316078 95.4189804 24.1593725 95.4189804 24.1593725 96.5044706 23.1002353 97.0258824 22.1276863 97.5466667 21.1538824 98.1126275 20.1913725 98.3799216 18.4050196 98.6522353 16.5741176 98.6666667 14.9207843 98.6666667 14.8191373L98.6666667 13.3741176 100.185098 13.3741176 100.185098 18.4897255C100.185098 18.4897255 100.163137 22.4464314 100.151843 23.072 100.139922 23.6981961 100.151843 24.6663529 100.139922 24.8363922 100.128627 25.0076863 100.035765 25.7361569 100.522039 25.7700392 101.008314 25.804549 102.305255 25.7135686 102.514824 25.6903529 102.721882 25.6683922 103.39451 25.6790588 103.39451 25.0641569 103.39451 24.4492549 103.346824 22.24 103.346824 21.8315294 103.346824 21.4224314 103.312314 17.7562353 103.312314 17.4142745L103.312314 13.4864314C103.312314 13.4864314 103.278431 13.3841569 103.381333 13.3841569L104.928627 13.3841569C104.928627 13.3841569 104.988863 13.3929412 105.118745 13.3929412 105.249882 13.3929412 105.400471 13.4261961 105.492706 13.2053333 105.563608 13.0315294 105.443765 12.9455686 105.391059 12.8771765M128.660706 7.07388235C128.622431 7.04501961 127.97302 6.52486275 127.97302 6.52486275 127.834353 6.41756863 126.394353 5.36596078 126.394353 5.36596078 126.27451 5.25803922 126.165333 5.33521569 126.133333 5.37035294 126.104471 5.40423529 125.630118 5.89803922 125.630118 5.89803922 125.630118 5.89803922 125.074824 6.52486275 125.042824 6.56376471 125.013333 6.60266667 124.982588 6.61082353 124.982588 6.61082353L122.719373 6.60517647C122.615216 6.60517647 122.53302 6.58196078 122.452078 6.54243137 122.369882 6.50164706 122.099451 6.38807843 121.855373 6.28517647 121.612549 6.18227451 120.788078 5.89552941 120.736627 5.87168627 120.683922 5.84972549 119.826196 5.60878431 119.722039 5.58619608 119.641098 5.5692549 119.619137 5.64329412 119.619137 5.67843137L119.619137 12.9825882C119.619137 12.9825882 119.610353 13.2919216 119.974275 13.3000784 120.367686 13.3094902 121.820863 13.2172549 121.820863 13.2172549 121.855373 13.2166275 121.825882 13.2574118 121.779451 13.3201569L120.910431 14.4081569C120.875294 14.4539608 120.818824 14.4539608 120.818824 14.4539608 120.818824 14.4539608 120.469333 14.4715294 120.343216 14.4715294 120.215843 14.4715294 119.178039 14.4941176 118.840471 14.4941176 118.504784 14.4941176 115.496157 14.4821961 115.281569 14.476549 115.067608 14.4715294 113.468235 14.425098 113.432471 14.425098 113.398588 14.425098 113.392314 14.4715294 113.398588 14.4884706 113.404235 14.5054118 113.485176 14.9000784 113.514667 14.9458824 113.542902 14.9923137 113.583059 15.0381176 113.665255 15.0324706 113.744941 15.0261961 114.784627 15.014902 114.81851 15.014902 114.85302 15.014902 114.888157 15.0092549 114.899451 15.0324706 114.910745 15.0544314 114.905725 15.1636078 114.905725 15.1636078L114.905725 16.8696471 114.905725 19.1309804C114.905725 19.2288627 114.893176 20.819451 114.893176 20.819451 114.893176 20.8658824 114.871216 20.8828235 114.840471 20.8941176 114.812235 20.9060392 113.667765 20.9430588 113.610039 20.9430588 113.551686 20.9430588 113.527843 20.9549804 113.493961 20.9719216 113.43498 21.0007843 113.472 21.1093333 113.482667 21.1551373 113.493961 21.2003137 113.682824 21.6156863 113.734275 21.7129412 113.78698 21.8101961 114.094431 22.4746667 114.145882 22.5825882 114.198588 22.6917647 114.615216 23.5331765 114.656627 23.5959216 114.697412 23.6599216 114.760784 23.6818824 114.800314 23.6818824 114.840471 23.6818824 114.88251 23.6599216 114.927686 23.6423529 114.975373 23.6254118 115.13098 23.5400784 115.259608 23.4886275 115.38698 23.4359216 116.05898 23.1215686 116.192627 23.0581961 116.32502 22.995451 116.980078 22.6804706 117.12502 22.6120784 117.269333 22.5436863 117.908078 22.2287059 118.041725 22.1653333 118.174118 22.1025882 119.050039 21.6614902 119.148549 21.6094118 119.247686 21.5579608 119.976784 21.203451 120.018196 21.1865098 120.05898 21.1695686 120.064 21.1639216 120.064 21.1865098 120.064 21.2097255 120.087216 21.958902 120.087216 21.958902 120.087216 21.958902 120.092863 24.140549 120.092863 24.1807059 120.092863 24.2202353 120.105412 24.352 120.122353 24.4040784 120.139922 24.4555294 120.232784 24.5521569 120.272314 24.5816471 120.313725 24.6098824 120.469333 24.633098 120.469333 24.633098L121.275608 24.633098C121.398588 24.633098 121.536627 24.6211765 121.699765 24.6042353 121.860392 24.5866667 122.068706 24.5521569 122.336 24.5069804 122.602667 24.460549 122.660392 24.352 122.742588 24.2773333 122.823529 24.2026667 122.851765 24.0200784 122.851765 24.0200784L122.851765 23.1447843C122.851765 23.0531765 122.899451 23.0864314 123.119059 23.1956078 123.339294 23.3047843 123.698824 23.6599216 123.698824 23.6599216 123.96549 23.9052549 124.219608 24.4668235 124.301176 24.6437647 124.446118 24.9587451 124.568471 25.5548235 124.626196 25.7204706 124.683922 25.8867451 124.776784 25.9093333 124.870275 25.9256471 124.963137 25.9444706 125.101804 25.9319216 125.414275 25.8930196 125.726745 25.8522353 126.278275 25.6916078 126.509804 25.6062745 126.742588 25.5203137 127.112784 25.3364706 127.356863 25.1306667 127.599059 24.9242353 127.646745 24.8156863 127.838118 24.4956863 128.02949 24.1744314 128.121098 23.6254118 128.127373 23.5105882 128.133647 23.3957647 128.150588 22.8749804 128.150588 22.6748235 128.150588 22.4746667 128.133647 18.6961569 128.133647 18.5411765 128.133647 18.3868235 128.092235 14.7457255 128.092235 14.649098 128.092235 14.5505882 128.064627 10.8574118 128.064627 10.8574118L128.047686 8.36203922C128.047686 8.31560784 128.047686 8.26415686 128.060235 8.19576471 128.073412 8.1267451 128.087216 8.0665098 128.169412 8.00188235 128.245333 7.94290196 128.426667 7.82556863 128.481882 7.78729412 128.53898 7.74901961 128.60549 7.71137255 128.655686 7.67560784 128.769882 7.59403922 128.795608 7.5507451 128.795608 7.5507451 128.907922 7.39639216 128.848314 7.22070588 128.660706 7.07388235L128.660706 7.07388235zM117.605647 14.9835294L120.065882 14.9835294 120.065882 16.5201569 117.605647 16.5201569 117.605647 14.9835294 117.605647 14.9835294zM117.605647 17.0296471L120.069647 17.0296471 120.069647 18.5593725 117.605647 18.5593725 117.605647 17.0296471 117.605647 17.0296471zM120.05898 20.5163922C120.03702 20.5352157 119.993725 20.5383529 119.959216 20.5446275 119.925333 20.550902 117.728 20.7215686 117.687843 20.7284706 117.647059 20.7347451 117.605647 20.7221961 117.605647 20.7221961L117.605647 19.0638431 120.080941 19.0638431C120.080941 19.0989804 120.087216 20.435451 120.087216 20.435451 120.087216 20.435451 120.087216 20.4919216 120.05898 20.5163922L120.05898 20.5163922zM122.522353 7.12596078L124.981961 7.12596078 124.981961 9.19529412 122.522353 9.19529412 122.522353 7.12596078 122.522353 7.12596078zM124.981961 9.72611765L124.981961 11.795451 122.544314 11.795451 122.544314 9.72611765 124.981961 9.72611765 124.981961 9.72611765zM125.017098 22.3899608C125.008314 22.4370196 124.991373 22.553098 124.921725 22.6007843 124.851451 22.6478431 124.739137 22.6992941 124.551529 22.6992941L123.565176 22.6992941C123.565176 22.6992941 123.274667 22.6861176 123.134745 22.6779608 122.996078 22.668549 122.917647 22.6647843 122.891922 22.656 122.864941 22.6478431 122.848 22.6346667 122.848 22.604549 122.848 22.5744314 122.839216 21.0848627 122.839216 21.0848627L122.839216 19.3625098C122.839216 19.3625098 122.809098 17.6414118 122.809098 17.5510588 122.809098 17.4613333 122.782745 16.121098 122.782745 15.9366275 122.782745 15.7521569 122.779608 15.1209412 122.78651 15.0864314 122.796549 15.0519216 122.773333 15.0180392 122.860549 15.0180392 122.947137 15.0180392 123.247686 15.0048627 123.348078 15.0048627 123.447216 15.0048627 124.047686 15.0004706 124.047686 15.0004706 124.047686 15.0004706 124.106667 15.0004706 124.155608 14.9747451 124.222118 14.9408627 124.269804 14.8894118 124.291765 14.8505098 124.312471 14.8116078 124.321255 14.7601569 124.31749 14.7124706 124.312471 14.6660392 124.291765 14.6014118 124.239059 14.5543529 124.187608 14.5066667 123.959216 14.3046275 123.900863 14.2538039 123.839373 14.2017255 123.439059 13.8672941 123.322353 13.7769412 123.204392 13.6872157 122.864941 13.4287059 122.730667 13.3264314 122.59702 13.222902 122.464627 13.1281569 122.448314 13.1156078 122.430118 13.1024314 122.387451 13.0641569 122.421333 13.0164706 122.455843 12.9700392 122.508549 12.8414118 122.517333 12.7466667 122.52549 12.6519216 122.53051 12.3338039 122.53051 12.3338039L124.981961 12.3338039C124.981961 12.3902745 125.000157 14.0517647 125.003922 14.2067451 125.008314 14.361098 125.003922 16.7912157 125.003922 16.7912157L125.022118 19.737098 125.025882 21.9651765C125.025882 21.9651765 125.025882 22.3422745 125.017098 22.3899608L125.017098 22.3899608z"/>
    <path fill="#FFF" d="M115.13098 12.9254902C115.149804 13.0516078 115.224471 13.2398431 115.38698 13.28 115.548863 13.3201569 115.831843 13.3145098 115.966745 13.3145098 116.099137 13.3145098 116.882196 13.2630588 117.132549 13.2454902 117.379765 13.228549 117.617569 13.2065882 117.704784 13.1658039 117.792 13.1256471 118.008471 13.0164706 118.008471 12.6619608L118.008471 8.13364706C118.008471 8.13364706 117.999686 7.91592157 118.214275 7.78415686 118.393725 7.67435294 118.408157 7.66745098 118.408157 7.66745098 118.479059 7.62415686 118.652863 7.50368627 118.714353 7.42713725 118.774588 7.34933333 118.836078 7.20627451 118.627137 7.01176471 118.627137 7.01176471 118.208627 6.656 117.995294 6.49098039 117.780706 6.32407843 117.286902 5.92941176 117.166431 5.84407843 117.044078 5.75811765 116.743529 5.52282353 116.64 5.46007843 116.534588 5.39733333 116.481882 5.36847059 116.436078 5.34588235 116.389647 5.32266667 116.34949 5.312 116.296784 5.35090196 116.245333 5.39168627 116.075922 5.55733333 116.023216 5.61443137 115.971765 5.67215686 115.68251 5.99843137 115.589647 6.09003922 115.496157 6.18227451 115.259608 6.45647059 115.211922 6.50792157 115.166745 6.55937255 115.160471 6.58258824 115.13098 6.60517647 115.10149 6.62839216 115.073255 6.63905882 115.056314 6.63905882 115.038118 6.63905882 112.82949 6.65098039 112.82949 6.65098039 112.82949 6.65098039 112.742902 6.63905882 112.655686 6.60517647 112.569725 6.57066667 112.326275 6.44894118 112.064 6.35921569 111.814902 6.27262745 111.42149 6.11827451 111.247686 6.06117647 111.073255 6.00407843 110.55749 5.84972549 110.395608 5.80329412 110.233098 5.75811765 109.937569 5.68407843 109.839686 5.66086275 109.739922 5.63764706 109.687843 5.62572549 109.665255 5.63764706 109.642039 5.64894118 109.625098 5.632 109.625098 5.73490196 109.625098 5.83780392 109.648314 8.13929412 109.648314 8.13929412L109.665255 10.8699608 109.665255 13.4123922 109.648314 16.3488627 109.630118 18.7187451C109.630118 18.7187451 109.608157 21.5240784 109.601882 21.7185882 109.596863 21.9137255 109.561098 23.872 109.554824 24.0376471 109.549176 24.2026667 109.509647 25.3941961 109.520941 25.497098 109.531608 25.6 109.561098 25.8233725 109.763137 25.9093333 109.967059 25.9952941 110.024784 25.9783529 110.128941 25.9783529 110.233098 25.9783529 110.784627 25.9670588 111.10902 25.9444706 111.434039 25.9212549 112.181333 25.8352941 112.308706 25.7888627 112.436078 25.7430588 112.638745 25.6401569 112.680157 25.4111373 112.719059 25.1821176 112.725333 24.5176471 112.725333 24.4442353L112.725333 23.2752941C112.725333 23.0814118 112.731608 12.3664314 112.731608 12.3664314L115.119059 12.3664314C115.119059 12.3664314 115.114039 12.7993725 115.13098 12.9254902L115.13098 12.9254902zM112.713412 7.19937255C112.713412 7.19937255 112.722824 7.15984314 112.757333 7.15984314 112.757333 7.15984314 114.775843 7.12596078 115.035608 7.14352941 115.035608 7.14352941 115.105255 7.13411765 115.105255 7.2025098L115.105255 9.24109804 112.713412 9.24109804 112.713412 7.19937255 112.713412 7.19937255zM115.10902 11.8374902L112.713412 11.8374902 112.713412 9.77066667 115.10902 9.77066667 115.10902 11.8374902 115.10902 11.8374902zM139.740235 18.6095686C139.910275 19.1209412 140.323765 19.4484706 140.845804 19.4484706 141.611294 19.4484706 142.110118 18.7921569 142.110118 18.0141176 142.110118 17.1513725 141.627608 16.5665882 140.720314 15.9780392 140.075922 15.5601569 139.094588 15.2276078 138.426353 15.0462745 138.433882 15.0368627 138.440157 15.0312157 138.447059 15.0211765 139.024314 14.1377255 140.520784 11.7176471 140.759843 11.0004706 140.848314 10.7356863 141.527216 10.7708235 141.603137 10.4219608 141.652078 10.1967059 141.269333 9.88298039 140.955608 9.66713725 140.730353 9.51278431 139.322353 8.3545098 139.102745 8.37333333 138.966588 8.3852549 138.549333 8.85709804 138.24502 9.22227451 138.255059 8.05145098 138.300235 6.73129412 138.320941 6.47341176 138.356706 6.05239216 138.401882 6.05803922 138.472157 5.99592157 138.541804 5.93192157 138.674196 5.92188235 138.760784 5.83592157 138.848 5.75058824 138.860549 5.62572549 138.773333 5.52909804 138.686118 5.43121569 138.390588 5.38666667 138.390588 5.38666667 137.510902 5.19278431 135.188706 5.02776471 135.056314 5.01647059 134.922667 5.00454902 134.922667 5.11811765 134.927686 5.17019608 134.935216 5.22101961 134.986667 5.95011765 134.986667 6.08062745 134.986667 6.21113725 135.039373 7.15607843 135.04502 7.28219608 135.047529 7.34494118 135.060078 9.12815686 135.072627 9.58054902 133.813961 9.57427451 132.749804 9.5692549 132.735373 9.5692549 132.682667 9.5692549 132.648157 9.58745098 132.653176 9.63764706 132.659451 9.68909804 132.729098 9.95011765 132.774275 10.0975686 132.774275 10.0975686 132.796863 10.214902 132.961882 10.2111373L137.623843 10.1734902C136.48251 13.8290196 134.379922 16.3783529 133.881098 17.1093333 133.337098 17.9087059 132.069647 19.3022745 131.855686 19.5237647 131.639843 19.7458824 131.712 19.8581961 131.845647 19.872 132.011922 19.8876863 133.264941 19.1134118 133.658353 18.8812549 134.100706 18.6196078 134.62149 18.2581961 135.179922 17.8214902 135.164235 19.7201569 135.151059 22.6980392 135.148549 22.7413333 135.139765 22.9552941 135.072627 25.0202353 135.122824 25.44 135.169255 25.8296471 135.570824 25.8359216 135.831843 25.8359216 136.092863 25.8359216 136.851451 25.8020392 136.990118 25.7907451 137.130039 25.7788235 137.621333 25.7386667 137.974588 25.6420392 138.327216 25.5460392 138.345412 25.1356863 138.345412 25.1356863 138.345412 25.1356863 138.253804 18.3523137 138.236863 15.7640784 138.58949 16.1863529 138.915765 16.7052549 139.058824 16.9932549 139.308549 17.4933333 139.541333 18.0172549 139.740235 18.6095686L139.740235 18.6095686zM153.543529 24.0181961C152.563451 23.0751373 152.511373 23.014902 152.411608 22.9364706 152.019451 22.6271373 151.378824 22.0436078 151.296627 21.9858824 151.215686 21.9287843 151.065098 21.8032941 150.937725 21.9513725 150.809725 22.1007059 149.649569 23.6624314 149.582431 23.7546667 149.582431 23.7546667 149.477647 23.8927059 149.443765 23.9209412 149.409255 23.9498039 149.352784 23.9541961 149.275608 23.9548235L148.19451 23.9548235 148.139922 12.652549 152.191373 12.652549 152.591686 12.652549C152.798745 12.652549 152.971922 12.7014902 153.12251 12.5352157 153.271216 12.3683137 152.997647 12.0671373 152.997647 12.0671373 152.997647 12.0671373 151.529412 10.4966275 151.36 10.3504314 151.191216 10.2048627 151.110275 10.0743529 150.932706 10.0668235 150.741333 10.0555294 150.468392 10.4527059 150.468392 10.4527059L149.715451 11.4064314C149.731765 11.3449412 149.397961 11.7992157 149.173961 12.0119216 148.83702 12.0119216 148.487529 12.0119216 148.137412 12.0112941L148.119216 8.29992157C148.119216 7.89772549 148.198275 6.48282353 148.198275 6.31341176 148.198275 6.11764706 148.387137 6.07058824 148.535216 5.98211765 148.686431 5.89552941 148.739137 5.8214902 148.739137 5.6294902 148.739137 5.43184314 148.249725 5.37537255 148.249725 5.37537255 148.249725 5.37537255 146.158431 5.11560784 145.66149 5.07670588 145.160784 5.03592157 144.912941 5.03592157 144.840784 5.06603922 144.77302 5.09615686 144.811294 5.65521569 144.811294 5.65521569L144.847059 8.35827451 144.905412 12.0106667C144.032 12.0106667 143.436549 12.0100392 143.42651 12.0094118 142.709333 11.9918431 141.426196 11.9604706 141.220392 11.9523137 140.929882 11.9410196 140.850196 11.9297255 140.815059 11.9410196 140.780549 11.9523137 140.780549 11.974902 140.791843 12.0326275 140.80251 12.0903529 140.878431 12.4599216 140.906667 12.5596863 140.934902 12.6550588 140.953098 12.6732549 141.116235 12.6732549 141.246118 12.6732549 142.799059 12.659451 143.436549 12.6538039 143.445961 12.6538039 144.041412 12.6538039 144.916706 12.6531765L144.933647 13.7581176 144.933647 23.9617255C143.302902 23.961098 141.968314 23.9604706 141.955765 23.9604706 141.240471 23.942902 139.957333 23.910902 139.750275 23.9027451 139.46102 23.891451 139.380078 23.8801569 139.345569 23.891451 139.309804 23.9027451 139.309804 23.9259608 139.322353 23.9836863 139.33302 24.0407843 139.409569 24.4109804 139.437176 24.5101176 139.464784 24.6061176 139.484235 24.6243137 139.64549 24.6243137 139.776 24.6243137 141.328314 24.6098824 141.965804 24.6042353 142.003451 24.6036078 149.06102 24.6036078 149.091765 24.6036078 149.091765 24.6036078 149.100549 24.5898039 149.105569 24.582902L153.177725 24.5898039C153.391686 24.5935686 153.60502 24.5534118 153.651451 24.4392157 153.697882 24.3250196 153.729882 24.1982745 153.543529 24.0181961L153.543529 24.0181961zM15.7402353 31.8500392C24.3858824 31.8500392 31.3951373 24.8414118 31.3951373 16.1951373 31.3951373 7.54886275 24.3858824.539607843 15.7402353.539607843 7.09396078.539607843.0847058824 7.54886275.0847058824 16.1951373.0847058824 24.8414118 7.09396078 31.8500392 15.7402353 31.8500392"/>
    <path fill="#0078C6" d="M15.7402353,27.2087843 C24.185098,27.2087843 31.0312157,22.278902 31.0312157,16.1957647 C31.0312157,10.1126275 24.185098,5.1814902 15.7402353,5.1814902 C7.29537255,5.1814902 0.449882353,10.1126275 0.449882353,16.1957647 C0.449882353,22.278902 7.29537255,27.2087843 15.7402353,27.2087843"/>
    <path fill="#FFF" d="M15.7408627,27.2878431 C21.8666667,27.2878431 26.8335686,22.3215686 26.8335686,16.1951373 C26.8335686,10.0687059 21.8666667,5.10243137 15.7408627,5.10243137 C9.61443137,5.10243137 4.64752941,10.0687059 4.64752941,16.1951373 C4.64752941,22.3215686 9.61443137,27.2878431 15.7408627,27.2878431"/>
    <path fill="#0078C6" d="M15.7402353,22.7482353 C21.9193725,22.7482353 26.9283137,19.8142745 26.9283137,16.1951373 C26.9283137,12.576 21.9193725,9.64141176 15.7402353,9.64141176 C9.56172549,9.64141176 4.55278431,12.576 4.55278431,16.1951373 C4.55278431,19.8142745 9.56172549,22.7482353 15.7402353,22.7482353"/>
    <path fill="#FFF" d="M15.7408627,22.7996863 C19.3882353,22.7996863 22.3447843,19.8418824 22.3447843,16.1957647 C22.3447843,12.5477647 19.3882353,9.59058824 15.7408627,9.59058824 C12.0928627,9.59058824 9.13568627,12.5477647 9.13568627,16.1957647 C9.13568627,19.8418824 12.0928627,22.7996863 15.7408627,22.7996863"/>
    <path fill="#0078C6" d="M14.7344314,14.5305098 C14.7344314,14.5305098 15.705098,12.5258039 15.7427451,12.4875294 C15.7803922,12.4498824 15.7678431,12.4762353 15.7678431,12.4762353 C15.7935686,12.5170196 16.8269804,14.5926275 16.8269804,14.5926275 L19.1460392,14.9458824 C19.0199216,15.0588235 17.4952157,16.5722353 17.4952157,16.5722353 C17.4952157,16.5722353 17.4443922,16.5967059 17.4820392,16.8244706 L17.8227451,18.9916863 C17.7091765,18.9421176 15.8688627,17.9080784 15.8688627,17.9080784 C15.8688627,17.9080784 15.7552941,17.8572549 15.68,17.92 C15.6047059,17.9833725 13.6752941,18.9163922 13.6752941,18.9163922 C13.6752941,18.9163922 14.0542745,16.6475294 14.028549,16.5847843 C14.0028235,16.5226667 13.9407059,16.4843922 13.9407059,16.4843922 C13.8396863,16.3827451 12.364549,14.9703529 12.364549,14.9703529 C12.364549,14.9703529 12.2760784,14.9327059 12.3833725,14.9151373 C12.5345882,14.8875294 14.6083137,14.6302745 14.6842353,14.6058039 L14.7344314,14.5305098"/>
    <path fill="#FFF" d="M176.79498,31.8500392 C185.440627,31.8500392 192.449882,24.8414118 192.449882,16.1951373 C192.449882,7.54886275 185.440627,0.539607843 176.79498,0.539607843 C168.148706,0.539607843 161.138824,7.54886275 161.138824,16.1951373 C161.138824,24.8414118 168.148706,31.8500392 176.79498,31.8500392"/>
    <path fill="#0078C6" d="M176.79498,27.2087843 C185.239843,27.2087843 192.085333,22.278902 192.085333,16.1957647 C192.085333,10.1126275 185.239843,5.1814902 176.79498,5.1814902 C168.350118,5.1814902 161.504,10.1126275 161.504,16.1957647 C161.504,22.278902 168.350118,27.2087843 176.79498,27.2087843"/>
    <path fill="#FFF" d="M176.795608,27.2878431 C182.920784,27.2878431 187.887686,22.3215686 187.887686,16.1951373 C187.887686,10.0687059 182.920784,5.10243137 176.795608,5.10243137 C170.669176,5.10243137 165.701647,10.0687059 165.701647,16.1951373 C165.701647,22.3215686 170.669176,27.2878431 176.795608,27.2878431"/>
    <path fill="#0078C6" d="M176.79498,22.7482353 C182.97349,22.7482353 187.982431,19.8142745 187.982431,16.1951373 C187.982431,12.576 182.97349,9.64141176 176.79498,9.64141176 C170.615843,9.64141176 165.606902,12.576 165.606902,16.1951373 C165.606902,19.8142745 170.615843,22.7482353 176.79498,22.7482353"/>
    <path fill="#FFF" d="M176.795608,22.7996863 C180.44298,22.7996863 183.399529,19.8418824 183.399529,16.1957647 C183.399529,12.5477647 180.44298,9.59058824 176.795608,9.59058824 C173.147608,9.59058824 170.190431,12.5477647 170.190431,16.1957647 C170.190431,19.8418824 173.147608,22.7996863 176.795608,22.7996863"/>
    <path fill="#0078C6" d="M175.789176,14.5305098 C175.789176,14.5305098 176.759216,12.5258039 176.79749,12.4875294 C176.835137,12.4498824 176.822588,12.4762353 176.822588,12.4762353 C176.848314,12.5170196 177.881725,14.5926275 177.881725,14.5926275 L180.200157,14.9458824 C180.074667,15.0588235 178.549961,16.5722353 178.549961,16.5722353 C178.549961,16.5722353 178.49851,16.5967059 178.536784,16.8244706 L178.876863,18.9916863 C178.763922,18.9421176 176.923608,17.9080784 176.923608,17.9080784 C176.923608,17.9080784 176.810039,17.8572549 176.734745,17.92 C176.658824,17.9833725 174.730039,18.9163922 174.730039,18.9163922 C174.730039,18.9163922 175.108392,16.6475294 175.083294,16.5847843 C175.057569,16.5226667 174.994824,16.4843922 174.994824,16.4843922 C174.893804,16.3827451 173.419294,14.9703529 173.419294,14.9703529 C173.419294,14.9703529 173.330824,14.9327059 173.438118,14.9151373 C173.588706,14.8875294 175.662431,14.6302745 175.738353,14.6058039 L175.789176,14.5305098"/>
  </g>
</svg>
