<svg xmlns="http://www.w3.org/2000/svg" viewBox="0 0 75.72 88.49"><title>Learn</title><g id="Layer_2" data-name="Layer 2"><g id="_195" data-name="195"><path d="M42,45.7A17.71,17.71,0,1,1,59.74,28,17.73,17.73,0,0,1,42,45.7Zm0-33.89A16.19,16.19,0,1,0,58.22,28,16.21,16.21,0,0,0,42,11.81Z"/><path d="M38.58,35a.74.74,0,0,1-.66-.38l-3.33-5.76a.76.76,0,0,1,1.32-.76l3.32,5.76a.76.76,0,0,1-.28,1A.74.74,0,0,1,38.58,35Z"/><path d="M38.58,35a.83.83,0,0,1-.49-.17.77.77,0,0,1-.1-1.07L48.2,21.32a.76.76,0,0,1,1.07-.1.75.75,0,0,1,.1,1.06L39.16,34.68A.74.74,0,0,1,38.58,35Z"/><path d="M62.15,88.49H28.08a3.17,3.17,0,0,1-3.17-3.17V77.54H16.16a7.68,7.68,0,0,1-7.68-7.66V58.52l-4.83-.09A3.72,3.72,0,0,1,.44,53L6.52,41.51a17,17,0,0,0,2-7.92A33.62,33.62,0,1,1,72.05,48.85a61,61,0,0,0-6.72,27.72v8.75A3.18,3.18,0,0,1,62.15,88.49Zm-20-87A32.13,32.13,0,0,0,10,33.59a18.57,18.57,0,0,1-2.15,8.63L1.77,53.68a2.21,2.21,0,0,0,1.91,3.24l5.58.1a.76.76,0,0,1,.74.76v12.1A6.16,6.16,0,0,0,16.16,76h9.51a.76.76,0,0,1,.75.76v8.53A1.67,1.67,0,0,0,28.08,87H62.15a1.66,1.66,0,0,0,1.66-1.66V76.57A62.58,62.58,0,0,1,70.7,48.16,32.05,32.05,0,0,0,42.38,1.51Z"/></g></g></svg>