<svg xmlns="http://www.w3.org/2000/svg" viewBox="0 0 70.02 88.49"><title>Read</title><g id="Layer_2" data-name="Layer 2"><g id="_195" data-name="195"><path d="M30.62,88.49h-.07l-11-.89a.77.77,0,0,1-.58-1.16L24.85,77a.77.77,0,0,1,.68-.35.74.74,0,0,1,.64.42L31.29,87.4a.77.77,0,0,1-.05.76A.75.75,0,0,1,30.62,88.49Zm-9.75-2.3,8.47.68-3.93-7.93Z"/><path d="M26,88.11h-.06l-6.43-.51a.77.77,0,0,1-.61-.42.75.75,0,0,1,0-.74l3.46-5.53a.77.77,0,0,1,1.07-.23,7.58,7.58,0,0,1,3.29,6.73.71.71,0,0,1-.26.52A.74.74,0,0,1,26,88.11Zm-5.13-1.92,4.37.35a6.1,6.1,0,0,0-2-4.12Z"/><path d="M30.62,88.49h-.07l-11-.89a.77.77,0,0,1-.58-1.16L24.85,77a.68.68,0,0,1,.31-.27l34.76-17.2a.77.77,0,0,1,1,.35l5.12,10.35a.78.78,0,0,1,0,.58.79.79,0,0,1-.38.44l-1.23.6L31,88.41A.76.76,0,0,1,30.62,88.49Zm-9.75-2.3,9.6.77L63.82,70.47l.55-.27-4.46-9-1.25.62L26,78Z"/><path d="M30.75,75.54H.76A.76.76,0,0,1,0,74.78V.76A.76.76,0,0,1,.76,0H55.31a.76.76,0,0,1,.75.76V62.64a.75.75,0,0,1-.42.68L31.09,75.46A.81.81,0,0,1,30.75,75.54ZM1.51,74H30.58l24-11.85V1.51h-53Z"/><path d="M44.49,24.89H11.57a.76.76,0,0,1,0-1.52H44.49a.76.76,0,0,1,0,1.52Z"/><path d="M29.86,36.28H11.57a.76.76,0,0,1,0-1.51H29.86a.76.76,0,1,1,0,1.51Z"/><path d="M39.12,47.68H11.57a.75.75,0,0,1-.75-.75.76.76,0,0,1,.75-.76H39.12a.76.76,0,0,1,.76.76A.75.75,0,0,1,39.12,47.68Z"/><path d="M37,59.08H11.57a.76.76,0,0,1,0-1.51H37a.76.76,0,1,1,0,1.51Z"/><path d="M46.05,80.86a.71.71,0,0,1-.32-.07.76.76,0,0,1-.42-.49L42.26,68.92a.77.77,0,0,1,.4-.87l5.92-2.93a.76.76,0,0,1,1.07.48L52.7,77a.76.76,0,0,1-.4.88l-5.92,2.92A.76.76,0,0,1,46.05,80.86ZM43.89,69.13,46.54,79l4.54-2.24-2.65-9.89Z"/><path d="M65.38,71.3a.76.76,0,0,1-.68-.42L59.58,60.53a.78.78,0,0,1,0-.58.79.79,0,0,1,.38-.44l2.88-1.42a2.56,2.56,0,0,1,3.42,1.16l3.53,7.14A2.55,2.55,0,0,1,68.6,69.8l-2.88,1.43A.8.8,0,0,1,65.38,71.3ZM61.27,60.54l4.45,9,2.21-1.08a1.1,1.1,0,0,0,.52-.6,1,1,0,0,0,0-.79l-3.54-7.14a1,1,0,0,0-.93-.58,1.07,1.07,0,0,0-.46.11Z"/></g></g></svg>